# xmcd
#
# Track frame offsets:
#	150
#	12075
#	24987
#	37472
#	52242
#	67100
#	80300
#	95717
#	109872
#	124602
#	137400
#
# Disc length: 2028 seconds
#
# Revision: 1
# Processed by: cddbd v1.5.1PL0 Copyright (c) Steve Scherf et al.
# Submitted via: CDex 1.50Beta5
#
DISCID=9607ea0b
DTITLE=コシミハル - Frou-frou
DYEAR=2001
DGENRE=
TTITLE0=Frou-frou
TTITLE1=Dolores
TTITLE2=Reve -Dream-
TTITLE3=Tout le jour,toute la nuit-Night and Day-
TTITLE4=Hi-Lili,Hi-Lo
TTITLE5=Symphonie
TTITLE6=C’est un nid Charmant-There Is a small hotel-
TTITLE7=Fou d’amour -Fool’s rush in-
TTITLE8=Menilmontant
TTITLE9=It’s been a long long time
TTITLE10=Mam’selle
EXTD=
EXTT0=
EXTT1=
EXTT2=
EXTT3=
EXTT4=
EXTT5=
EXTT6=
EXTT7=
EXTT8=
EXTT9=
EXTT10=
PLAYORDER=
